<svg width="60" height="53" viewBox="0 0 60 53" fill="none" xmlns="http://www.w3.org/2000/svg">
<path d="M36.25 22.0833C34.175 22.0833 32.5 20.6037 32.5 18.7708V7.72916C32.5 5.89625 34.175 4.41666 36.25 4.41666C38.325 4.41666 40 5.89625 40 7.72916V18.7708C40 20.6037 38.325 22.0833 36.25 22.0833Z" stroke="#F5F5F5" stroke-width="4" stroke-linecap="round" stroke-linejoin="round"/>
<path d="M51.25 22.0833H47.5V18.7708C47.5 16.9379 49.175 15.4583 51.25 15.4583C53.325 15.4583 55 16.9379 55 18.7708C55 20.6037 53.325 22.0833 51.25 22.0833Z" stroke="#F5F5F5" stroke-width="4" stroke-linecap="round" stroke-linejoin="round"/>
<path d="M23.75 30.9167C25.825 30.9167 27.5 32.3962 27.5 34.2292V45.2708C27.5 47.1037 25.825 48.5833 23.75 48.5833C21.675 48.5833 20 47.1037 20 45.2708V34.2292C20 32.3962 21.675 30.9167 23.75 30.9167Z" stroke="#F5F5F5" stroke-width="4" stroke-linecap="round" stroke-linejoin="round"/>
<path d="M8.75 30.9167H12.5V34.2292C12.5 36.0621 10.825 37.5417 8.75 37.5417C6.675 37.5417 5 36.0621 5 34.2292C5 32.3962 6.675 30.9167 8.75 30.9167Z" stroke="#F5F5F5" stroke-width="4" stroke-linecap="round" stroke-linejoin="round"/>
<path d="M35 32.0208C35 30.1879 36.675 28.7083 38.75 28.7083H51.25C53.325 28.7083 55 30.1879 55 32.0208C55 33.8537 53.325 35.3333 51.25 35.3333H38.75C36.675 35.3333 35 33.8537 35 32.0208Z" stroke="#F5F5F5" stroke-width="4" stroke-linecap="round" stroke-linejoin="round"/>
<path d="M38.75 41.9583H35V45.2708C35 47.1037 36.675 48.5833 38.75 48.5833C40.825 48.5833 42.5 47.1037 42.5 45.2708C42.5 43.4379 40.825 41.9583 38.75 41.9583Z" stroke="#F5F5F5" stroke-width="4" stroke-linecap="round" stroke-linejoin="round"/>
<path d="M25 20.9792C25 19.1462 23.325 17.6667 21.25 17.6667H8.75C6.675 17.6667 5 19.1462 5 20.9792C5 22.8121 6.675 24.2917 8.75 24.2917H21.25C23.325 24.2917 25 22.8121 25 20.9792Z" stroke="#F5F5F5" stroke-width="4" stroke-linecap="round" stroke-linejoin="round"/>
<path d="M21.25 11.0417H25V7.72916C25 5.89625 23.325 4.41666 21.25 4.41666C19.175 4.41666 17.5 5.89625 17.5 7.72916C17.5 9.56208 19.175 11.0417 21.25 11.0417Z" stroke="#F5F5F5" stroke-width="4" stroke-linecap="round" stroke-linejoin="round"/>
</svg>
