<svg width="27" height="27" viewBox="0 0 27 27" fill="none" xmlns="http://www.w3.org/2000/svg">
<path d="M16.565 18.6355C6.56464 24.1355 3.06503 17.1355 1.56503 15.1355C0.0650324 13.1355 -0.434968 6.63551 4.06503 3.13551C8.56503 -0.364488 14.065 -0.864488 18.565 4.63551C22.165 9.03551 20.065 14.4688 18.565 16.6355M16.565 18.6355L18.565 16.6355M16.565 18.6355L18.8595 20.93M18.565 16.6355L21.0654 18.9573M18.8595 20.93L23.565 25.6355C24.8984 26.4688 27.165 27.1355 25.565 23.1355L21.0654 18.9573M18.8595 20.93L21.0654 18.9573M10.5654 4.63551C12.0654 4.80218 15.2654 5.83551 16.0654 8.63551M10.5654 2.63551C12.8152 2.58188 17.5649 4.00679 18.565 10.1355C18.5652 12.8616 16.9654 18.3781 10.5654 18.6355C2.56543 18.9573 2.56543 10.6355 2.56543 9.63551C2.56543 8.63551 4.06543 3.13551 10.5654 2.63551Z" stroke="white" stroke-linecap="round"/>
</svg>
