<svg width="35" height="34" viewBox="0 0 35 34" fill="none" xmlns="http://www.w3.org/2000/svg">
<path d="M32.0781 31.9999H2.07812C2.26331 27.181 5.30035 17.5433 15.967 17.5433C13.1892 17.5433 7.8559 15.937 8.74479 9.51181C9.63368 3.08665 14.3003 1.83732 16.5226 2.01579C18.93 2.19427 23.8559 4.05043 24.3003 10.0472C24.7448 16.0441 18.93 17.5433 15.967 17.5433C26.6337 17.5433 31.1522 27.181 32.0781 31.9999Z" fill="#C7C7C7"/>
<path d="M15.967 17.5433C5.30035 17.5433 2.26331 27.181 2.07812 31.9999H32.0781C31.1522 27.181 26.6337 17.5433 15.967 17.5433ZM15.967 17.5433C18.93 17.5433 24.7448 16.0441 24.3003 10.0472C23.8559 4.05043 18.93 2.19427 16.5226 2.01579C14.3003 1.83732 9.63368 3.08665 8.74479 9.51181C7.8559 15.937 13.1892 17.5433 15.967 17.5433Z" stroke="white" stroke-width="4"/>
</svg>
