<svg width="1070" height="22" viewBox="0 0 1070 22" fill="none" xmlns="http://www.w3.org/2000/svg">
<path d="M1069.33 10.6667C1069.33 4.77565 1064.56 2.00272e-05 1058.67 2.00272e-05C1052.78 2.00272e-05 1048 4.77565 1048 10.6667C1048 16.5577 1052.78 21.3334 1058.67 21.3334C1064.56 21.3334 1069.33 16.5577 1069.33 10.6667ZM21.3346 10.6667C21.3346 4.77565 16.559 2.00272e-05 10.668 2.00272e-05C4.77698 2.00272e-05 0.00134277 4.77565 0.00134277 10.6667C0.00134277 16.5577 4.77698 21.3334 10.668 21.3334C16.559 21.3334 21.3346 16.5577 21.3346 10.6667ZM1058.67 10.6667V8.66669L10.668 8.66669V10.6667V12.6667L1058.67 12.6667V10.6667Z" fill="#7F8A71"/>
</svg>
